<svg width="66" height="66" viewBox="0 0 66 66" fill="none" xmlns="http://www.w3.org/2000/svg">
<circle cx="7" cy="56" r="6" fill="#F9CBCB"/>
<circle cx="32" cy="39" r="25" fill="#D9D9D9"/>
<g clip-path="url(#clip0_24_1309)">
<path d="M20.9 46.1525C24.9332 49.0857 28.9667 51.4325 33 51.4325C37.0332 51.4325 41.0667 49.0857 45.1 46.1525C41.7755 45.1405 40.0888 43.6298 40.04 41.6205C40.04 41.2623 40.0426 40.7537 40.045 39.7987C40.045 39.647 40.0454 39.4917 40.0461 39.3327C40.0527 36.7719 40.0635 33.3927 40.0787 29.9607C43.2317 25.8738 42.0734 21.0824 41.0854 21.2018C39.8741 21.3492 29.3794 11.3903 27.3664 10.8797C25.3534 10.369 20.24 12.0175 19.36 16.61C18.48 21.2025 18.1121 32.7785 21.45 37.4C22.3998 38.7152 23.8958 39.2296 25.938 38.9433C25.9408 39.9045 25.9465 40.4439 25.96 41.5325C25.9338 43.6333 24.2473 45.1416 20.9 46.1525Z" fill="url(#paint0_linear_24_1309)"/>
<path d="M25.96 38.94C30.8 38.39 33.88 36.3 33.88 36.3C33.88 36.3 30.36 40.7 25.96 41.58V38.94Z" fill="#FC9F6A"/>
<path d="M41.69 30.03C43.2058 26.3846 49.28 18.9603 44.044 14.3403C42.284 5.76027 32.56 6.71001 26.07 8.69001C21.708 10.0208 18.414 12.65 17.71 10.67C13.31 14.3403 15.5135 17.93 18.414 18.9603C21.0465 19.8953 25.498 20.8303 33.0673 19.9503C34.4194 19.793 34.1363 23.934 34.8587 24.3817C35.9427 25.0534 36.784 20.8303 39.7557 22.0983C42.7275 23.3664 40.964 29.2461 37.774 29.2461C36.674 29.2461 36.124 32.2705 39.094 33.7005C41.25 34.76 40.705 32.3987 41.69 30.03Z" fill="url(#paint1_linear_24_1309)"/>
<path d="M56.1 52.8678C58.1944 57.1263 59.4 66.9478 59.4 66.9478H6.59998C6.59998 66.9478 7.80602 57.1252 9.89998 52.8678C11.9939 48.6104 24.222 44.6616 24.222 44.6616C30.9788 47.3 35.1137 47.3 41.7716 44.66C41.7716 44.66 54.0056 48.6093 56.1 52.8678Z" fill="url(#paint2_linear_24_1309)"/>
<path d="M34.54 46.2L35.64 66.44H30.36L31.46 46.2C31.46 46.2 32.4867 45.1 33 45.1C33.5132 45.1 34.54 46.2 34.54 46.2Z" fill="url(#paint3_linear_24_1309)"/>
<path d="M34.7906 50.3123L31.3311 48.3134L31.46 46.2C32.1445 45.4667 32.6578 45.1 33 45.1C33.3421 45.1 33.8555 45.4667 34.54 46.2L34.7908 50.3123H34.7906Z" fill="#645050"/>
<path d="M33 45.0983L30.8 49.06L23.98 44.88L25.96 42.02L33 44.6206L40.04 42.02L42.02 44.88L35.2 49.06L33 45.0983Z" fill="white"/>
</g>
<defs>
<linearGradient id="paint0_linear_24_1309" x1="31.9267" y1="10.7903" x2="31.9267" y2="51.4325" gradientUnits="userSpaceOnUse">
<stop stop-color="#F7B186"/>
<stop offset="1" stop-color="#FFC299"/>
</linearGradient>
<linearGradient id="paint1_linear_24_1309" x1="30.6769" y1="7.34534" x2="30.6769" y2="33.961" gradientUnits="userSpaceOnUse">
<stop stop-color="#1D0024"/>
<stop offset="1" stop-color="#100014"/>
</linearGradient>
<linearGradient id="paint2_linear_24_1309" x1="33" y1="44.66" x2="33" y2="66.9478" gradientUnits="userSpaceOnUse">
<stop stop-color="#1D0024"/>
<stop offset="1" stop-color="#100014"/>
</linearGradient>
<linearGradient id="paint3_linear_24_1309" x1="33" y1="45.1" x2="33" y2="66.44" gradientUnits="userSpaceOnUse">
<stop stop-color="#806A6A"/>
<stop offset="1" stop-color="#665654"/>
</linearGradient>
<clipPath id="clip0_24_1309">
<rect width="66" height="66" rx="33" fill="white"/>
</clipPath>
</defs>
</svg>
